<?xml version="1.0" encoding="utf-8"?>
<!-- Generator: Adobe Illustrator 23.0.4, SVG Export Plug-In . SVG Version: 6.00 Build 0)  -->
<svg version="1.1" xmlns="http://www.w3.org/2000/svg" xmlns:xlink="http://www.w3.org/1999/xlink" x="0px" y="0px"
	 viewBox="0 0 600 400" style="enable-background:new 0 0 600 400;" xml:space="preserve">
<style type="text/css">
	.st0{fill:url(#SVGID_1_);stroke:#000000;stroke-miterlimit:10;}
	.st1{fill:url(#SVGID_2_);stroke:#000000;stroke-miterlimit:10;}
	.st2{fill:url(#SVGID_3_);stroke:#000000;stroke-miterlimit:10;}
	.st3{fill:#994A04;stroke:#000000;stroke-miterlimit:10;}
	.st4{fill:url(#SVGID_4_);stroke:#000000;stroke-width:3;stroke-miterlimit:10;}
	.st5{fill:none;stroke:#000000;stroke-width:3;stroke-miterlimit:10;}
	.st6{fill:url(#SVGID_5_);stroke:#000000;stroke-width:3;stroke-miterlimit:10;}
</style>
<g id="pot-s">
	<linearGradient id="SVGID_1_" gradientUnits="userSpaceOnUse" x1="285.1249" y1="388.3856" x2="295.2086" y2="252.1909">
		<stop  offset="0" style="stop-color:#FF8A28"/>
		<stop  offset="0.6459" style="stop-color:#F19814"/>
		<stop  offset="0.9981" style="stop-color:#E8A107"/>
	</linearGradient>
	<path class="st0" d="M206.2,259.1c0,0,24.7,99,28.8,115.7c4.1,16.7,120.2,20.4,124.3,0c4.1-20.4,23.8-116.1,23.8-116.1
		C332.4,272,245,273.2,206.2,259.1z"/>
	<linearGradient id="SVGID_2_" gradientUnits="userSpaceOnUse" x1="293.4808" y1="270.5038" x2="297.4905" y2="216.3478">
		<stop  offset="0" style="stop-color:#FF8A28"/>
		<stop  offset="0.9981" style="stop-color:#FD8C23"/>
	</linearGradient>
	<path class="st1" d="M392.3,232c0,19.5,0-0.7,0,19.5c0,20.2-193.1,25.1-193.5,0c-0.3-25,0-10.9,0-19.5
		C200.7,215.7,392.3,212.5,392.3,232z"/>
	<linearGradient id="SVGID_3_" gradientUnits="userSpaceOnUse" x1="294.5053" y1="250.8259" x2="297.064" y2="216.2672">
		<stop  offset="0" style="stop-color:#FF8A28"/>
		<stop  offset="0.9981" style="stop-color:#FD8C23"/>
	</linearGradient>
	<path class="st2" d="M198.9,232c0-18.3,193.5-18.8,193.5,0c0,18.2,0,0,0,0C392.3,255.7,198.9,254.8,198.9,232
		C198.9,232,198.9,250.2,198.9,232z"/>
	<ellipse class="st3" cx="294.1" cy="233.8" rx="74.7" ry="8.1"/>
</g>
<g id="base-s">
	<linearGradient id="SVGID_4_" gradientUnits="userSpaceOnUse" x1="301.0154" y1="28.9102" x2="293.2291" y2="241.1474">
		<stop  offset="3.188223e-02" style="stop-color:#87BA2F"/>
		<stop  offset="0.2052" style="stop-color:#74B232"/>
		<stop  offset="0.7397" style="stop-color:#3F9C3C"/>
		<stop  offset="1" style="stop-color:#2A9340"/>
	</linearGradient>
	<path class="st4" d="M311.4,35.4c-88.1-7.5-92,77.3-92,94.9s16.1,108.5,23.3,109.4c38.7,5,89.4,1.4,98.5,0
		c3.1,0,22.4-63.9,27.6-88.3C374,126.9,399.6,42.9,311.4,35.4z"/>
	<path class="st5" d="M295.8,35c-72.9,46.5-45.1,171.2-30.9,206.6"/>
	<path class="st5" d="M307.4,34.9c-29.8,26.2-24.4,201.1-15.6,207.3"/>
	<path class="st5" d="M317.9,36.1c20.6-1.2,22.5,199.3,4.5,205.2"/>
	<path class="st5" d="M338.5,41.2c63.1,38.6-3.1,168.4,6.2,191.8"/>
</g>
<g id="flower-s">
	<linearGradient id="SVGID_5_" gradientUnits="userSpaceOnUse" x1="310.411" y1="37.6658" x2="311.5971" y2="21.6466">
		<stop  offset="0" style="stop-color:#9D1348"/>
		<stop  offset="0.2652" style="stop-color:#AE275C"/>
		<stop  offset="0.8065" style="stop-color:#D85990"/>
		<stop  offset="1" style="stop-color:#E96DA4"/>
	</linearGradient>
	<path class="st6" d="M321.9,36.7c0,0,7.5-8.6,7.5-11.9s-5.2-5.9-7.5-5.4s-3.3,5.1-5.4,5.4s-5.8-5.3-7.5-5.4
		c-1.7-0.1-2.1,4.9-4.4,4.7c-2.3-0.1-6.1-5.1-8.7-6.1c-2.5-1-2.5,4.3-2.5,6.8s4.4,10,4.4,10C299.9,33.9,319.7,34.6,321.9,36.7z"/>
</g>
</svg>
